<svg viewBox="0.5 0 13 23" fill="none" xmlns="http://www.w3.org/2000/svg"><path d="M12.36 15.512c0-1.44-.456-2.52-1.488-3.264a8.926 8.926 0 00-1.416-.888 15.895 15.895 0 00-1.752-.72V5.12c1.176.216 1.992.912 2.448 2.088l1.872-1.056c-.84-1.848-2.4-2.952-4.32-3.216V.8H6.192v2.112c-1.296.12-2.376.6-3.24 1.416-.864.816-1.296 1.872-1.296 3.168 0 1.416.456 2.472 1.416 3.216.96.744 1.68 1.08 3.12 1.584v5.808c-1.752-.192-2.88-1.032-3.432-2.52L.84 16.688c.84 2.112 2.736 3.408 5.352 3.6V22.4h1.512v-2.136c1.368-.168 2.496-.672 3.36-1.512.864-.84 1.296-1.92 1.296-3.24zM3.864 7.496c0-1.32.912-2.208 2.328-2.4v4.968C4.56 9.392 3.864 8.72 3.864 7.496zm3.84 5.352c1.656.696 2.424 1.368 2.424 2.688s-.888 2.304-2.424 2.52v-5.208z" fill="#45A709"/></svg>