<svg width="56" height="18" fill="none" xmlns="http://www.w3.org/2000/svg"><path d="M0 0h2.787v5.477L8.072 0h3.459L6.15 5.496l5.726 8.245H8.61L4.19 7.32 2.786 8.745v4.997H0V0z" fill="#fff"/><path d="M17.873 12.645h-.038c-.5.75-1.211 1.326-2.902 1.326-2.018 0-3.44-1.057-3.44-3.017 0-2.171 1.767-2.864 3.958-3.17 1.633-.232 2.383-.366 2.383-1.116 0-.71-.557-1.172-1.653-1.172-1.23 0-1.826.442-1.902 1.384h-2.326c.077-1.73 1.364-3.248 4.247-3.248 2.96 0 4.151 1.326 4.151 3.632v5.015c0 .75.115 1.192.346 1.364v.097H18.18c-.153-.192-.25-.653-.307-1.095zm.02-2.383v-1.48c-.462.27-1.173.423-1.826.576-1.364.308-2.037.615-2.037 1.538s.615 1.25 1.537 1.25c1.499 0 2.325-.923 2.325-1.884zM24.56 5.227h.059c.672-1.057 1.576-1.615 2.92-1.615 2.037 0 3.402 1.537 3.402 3.69v6.438h-2.613V7.686c0-1.057-.615-1.806-1.71-1.806-1.154 0-2 .922-2 2.268v5.592h-2.613V3.882h2.557v1.345h-.001zM32.286 14.03h2.595c.211.614.769 1.094 1.979 1.094 1.48 0 2.19-.71 2.19-2.056V11.99h-.057c-.577.654-1.326 1.153-2.575 1.153-2.191 0-4.343-1.73-4.343-4.708 0-2.94 1.768-4.824 4.266-4.824 1.23 0 2.133.48 2.73 1.307h.038V3.881h2.517v9.11c0 1.383-.442 2.325-1.173 2.998-.826.768-2.094 1.114-3.555 1.114-2.69 0-4.343-1.153-4.612-3.074zm6.9-5.65c0-1.443-.77-2.672-2.345-2.672-1.326 0-2.21 1.038-2.21 2.69 0 1.671.884 2.652 2.23 2.652 1.652 0 2.324-1.21 2.324-2.67zM49.217 12.645h-.039c-.5.75-1.21 1.326-2.902 1.326-2.018 0-3.44-1.057-3.44-3.017 0-2.171 1.768-2.864 3.959-3.17 1.633-.232 2.382-.366 2.382-1.116 0-.71-.556-1.172-1.652-1.172-1.23 0-1.826.442-1.903 1.384h-2.325c.076-1.73 1.364-3.248 4.247-3.248 2.96 0 4.151 1.326 4.151 3.632v5.015c0 .75.115 1.192.346 1.364v.097h-2.517c-.153-.192-.25-.653-.307-1.095zm.019-2.383v-1.48c-.461.27-1.172.423-1.826.576-1.364.308-2.037.615-2.037 1.538s.615 1.25 1.538 1.25c1.498 0 2.325-.923 2.325-1.884zM53.386 0H56v13.74h-2.614V0z" fill="#fff"/></svg>