<svg fill="none" viewBox="0 0 44 44" xmlns="http://www.w3.org/2000/svg"><path d="M22.529 43.776c-.142 0-.285-.002-.427-.005l-.104-.001-.096.001c-.141.002-.284.005-.426.005-.299 0-.541-.01-.762-.03-1.178-.103-2.186-1.072-2.4-2.302a.346.346 0 00-.22-.281 38.46 38.46 0 00-.583-.241c-.253-.102-.513-.207-.77-.322a.326.326 0 00-.129-.032c-.04 0-.103.011-.208.102-.511.447-1.113.683-1.74.683-.45 0-.884-.12-1.293-.358-.833-.484-1.485-.916-2.055-1.36-.93-.723-1.297-1.74-1.06-2.943.039-.203-.011-.3-.103-.392a16.62 16.62 0 00-.513-.486c-.084-.076-.146-.085-.186-.085a.334.334 0 00-.096.017 2.518 2.518 0 01-1.11.093c-1.179-.162-2.134-1.143-2.324-2.385a91.803 91.803 0 01-.167-1.132c-.044-.303-.086-.605-.132-.908-.096-.643-.04-1.204.174-1.714a3 3 0 01.486-.796c.058-.065.067-.076.004-.432-.035-.198-.082-.463-.113-.832l-.009-.01v-.115c-.079-1.073.034-2.027.144-2.95.033-.277.065-.558.094-.843.053-.515-.117-.854-.43-1.267-1.182-1.562-2.375-3.156-3.529-4.696-.441-.59-.883-1.181-1.327-1.77C.3 14.895-.072 13.68.012 12.376c.103-1.606.774-2.924 1.99-3.919.761-.623 1.526-1.242 2.291-1.86 1.134-.918 2.305-1.865 3.445-2.81.695-.576 1.468-1.026 2.213-1.46l.268-.157c.94-.548 1.912-1.117 2.992-1.441C15.001.195 19.45 0 22.001 0c2.553 0 7 .195 8.788.734 1.081.326 2.054.893 2.994 1.442l.266.155c.747.435 1.518.884 2.214 1.46 1.14.945 2.31 1.89 3.44 2.807.767.62 1.532 1.24 2.295 1.863 1.216.994 1.885 2.313 1.99 3.919.084 1.304-.288 2.519-1.107 3.611l-1.343 1.792c-1.148 1.534-2.337 3.12-3.513 4.675-.313.413-.483.752-.43 1.266.029.286.063.565.095.844.11.925.222 1.882.143 2.956v.003c-.03.43-.083.728-.12.948-.065.356-.056.367.005.434a2.973 2.973 0 01.485.794c.213.512.27 1.073.174 1.714-.046.305-.09.608-.133.913-.053.376-.108.75-.166 1.127-.19 1.242-1.146 2.223-2.324 2.385a2.547 2.547 0 01-1.11-.093.337.337 0 00-.096-.017c-.04 0-.102.01-.186.086-.186.169-.354.327-.514.486-.093.091-.142.188-.102.391.236 1.202-.13 2.22-1.06 2.944a18.22 18.22 0 01-2.056 1.36 2.54 2.54 0 01-1.292.356c-.628 0-1.23-.237-1.74-.681-.105-.092-.17-.103-.209-.103-.038 0-.08.011-.13.032-.255.115-.516.22-.769.322-.195.08-.388.157-.582.24a.35.35 0 00-.22.282c-.214 1.232-1.223 2.2-2.4 2.303a9.101 9.101 0 01-.76.026z" fill="#fff"/><path d="M22.002 37.328a6.297 6.297 0 01-1.244-.145c-2.967-.595-5.704-1.93-8.138-3.966-1.177-.986-2.315-2.14-3.478-3.53a3.16 3.16 0 01-.62-1.087c-.315-.725-.43-1.528-.35-2.455l.129-1.523.071-.847.096-1.13.155-1.841c.033-.391.064-.782.095-1.173l.091-1.117.106-1.25.093-1.093.104-1.255.08-.98.083-.972.119-1.427c.022-.266.043-.531.063-.797.037-.482.076-.978.122-1.467.03-.317.049-.642.067-.955.042-.695.083-1.414.242-2.11.372-1.654 1.421-2.875 3.117-3.628.622-.276 1.333-.432 2.179-.48.42-.024.87-.034 1.41-.034.378 0 .76.006 1.13.01l.425.006.118-.004c.097-.003.192-.008.29-.008h6.887c.097 0 .192.003.29.008l.125.004.417-.006c.37-.004.752-.01 1.13-.01.54 0 .99.01 1.41.034.845.046 1.558.204 2.18.48 1.695.753 2.744 1.974 3.117 3.628.156.698.2 1.415.241 2.11.02.315.038.638.067.955.047.489.086.987.123 1.469l.062.796.115 1.375.087 1.024.079.957.106 1.278.094 1.1.106 1.245.092 1.13.096 1.161c.052.627.105 1.253.16 1.88l.092 1.09.071.86c.042.504.084 1.007.128 1.511.081.926-.034 1.729-.349 2.455-.116.373-.319.728-.62 1.088-1.163 1.39-2.301 2.545-3.478 3.53-2.433 2.037-5.171 3.372-8.138 3.966-.485.094-.88.139-1.245.14z" fill="#fff"/><path d="M26.375 2.18c-.448.178-.836.473-1.289.65-.368.143-.449.468-.271.821.123.248-.005.51-.276.546-.317.042-.633.075-.95.107-.366.038-.524.296-.384.634.045.11.094.218.131.331.036.11.036.221-.062.302-.108.088-.22.065-.328-.005l-1.36-.87c-.291-.186-.585-.37-.872-.563-.123-.084-.235-.125-.377-.042-.139.082-.171.202-.164.348.007.137.006.274.01.41.005.145-.016.28-.179.331-.144.045-.243-.027-.326-.139-.498-.674-1.037-1.321-1.41-2.079-.15-.304-.283-.789-.283-.789h8.088c.102-.001.202.005.302.008z" fill="#F7CEA2"/><path d="M42.203 15.937c.742-.99 1.103-2.108 1.024-3.337-.094-1.458-.696-2.689-1.839-3.624-1.869-1.529-3.757-3.032-5.617-4.573-.708-.588-1.497-1.034-2.283-1.493-.955-.556-1.907-1.125-2.971-1.445C28.9.98 24.727.76 22.002.76c-2.726 0-6.899.219-8.517.705-1.063.32-2.016.888-2.971 1.445-.788.46-1.575.906-2.284 1.493-1.858 1.54-3.746 3.045-5.615 4.572C1.472 9.91.87 11.14.775 12.6c-.078 1.23.283 2.348 1.026 3.337 1.582 2.11 3.16 4.225 4.751 6.328.332.437.542.846.48 1.45-.122 1.229-.33 2.342-.23 3.67.071 1.066.302 1.274.038 1.571a2.57 2.57 0 00-.422.692c-.204.488-.228.998-.15 1.52.1.665.19 1.332.292 1.996.165 1.083 1.005 1.945 2.02 2.083.325.045.644.02.955-.08a.547.547 0 01.569.131c.173.158.343.32.51.483.18.178.237.38.183.654-.209 1.066.106 1.949.93 2.589.626.488 1.296.911 1.977 1.308.865.503 1.86.382 2.622-.285.196-.171.4-.228.65-.116.435.194.88.36 1.318.547.209.09.35.257.392.5.183 1.06 1.07 1.918 2.082 2.007.41.036.822.027 1.233.021.412.006.824.015 1.234-.02 1.01-.09 1.897-.948 2.082-2.008a.636.636 0 01.392-.5c.438-.188.883-.353 1.319-.547.25-.112.453-.055.649.116.762.667 1.757.788 2.622.285.681-.397 1.351-.82 1.978-1.308.821-.64 1.138-1.523.929-2.59-.054-.272.004-.475.183-.653.167-.165.337-.325.51-.483.166-.15.354-.2.569-.131.313.1.632.125.956.08 1.014-.138 1.854-1 2.02-2.083.1-.666.192-1.33.291-1.996.078-.522.054-1.03-.15-1.52a2.572 2.572 0 00-.422-.692c-.264-.297-.033-.505.039-1.57.1-1.33-.11-2.444-.232-3.671-.062-.604.15-1.013.48-1.45 1.592-2.103 3.17-4.218 4.753-6.328zM9.106 32.769c-.22.007-.422.1-.592.32a.198.198 0 01-.327-.015.45.45 0 01-.061-.168c-.048-.222-.112-.484-.155-.692-.069-.339-.176-.754-.207-1.022-.024-.358.3-.379.505-.12l.05.072c.002.002.002.003.004.003.066.093.13.187.194.28.079.114.155.23.232.344v.001c.002.003.003.006.006.008l.038.055.001.001.072.105c.164.235.26.36.4.522.116.135.044.298-.16.306zm3.149 1.75c-.033.12-.102.2-.221.226-.161.036-.299-.018-.42-.124a8 8 0 01-.4-.379.58.58 0 01-.172-.435c-.003-.088.073-.172.185-.23.11-.057.198-.023.285.063.21.207.426.408.643.608.079.076.132.155.1.272zm2.947 3.131a.517.517 0 01-.1.06c-.38.173-.552.535-.436.96.043.158-.104.302-.225.278a.533.533 0 01-.192-.087c-.403-.262-.804-.526-1.206-.79a7.191 7.191 0 01-.395-.275c-.12-.088-.106-.255.023-.328.035-.02.077-.033.118-.045.389-.104.613-.428.589-.853-.002-.037-.008-.074-.01-.117 0-.163.174-.259.324-.16.505.328 1.006.66 1.507.995.128.088.127.264.003.362zm4.124 1.102a.93.93 0 01-.257.21.367.367 0 01-.325.019c-.413-.17-.83-.33-1.24-.514-.189-.084-.317-.248-.329-.378-.015-.334.167-.48.365-.398.434.177.873.341 1.317.484.124.04.25.073.372.121.201.078.244.292.097.456zm3.727 2.321c.091.088.037.282-.09.337a.397.397 0 01-.164.035c-.265-.002-.532-.002-.797-.002-.266 0-.533 0-.798.002a.397.397 0 01-.163-.035c-.127-.055-.182-.249-.091-.337.3-.29.334-.79-.025-1.117-.067-.061-.073-.128-.051-.21.033-.117.12-.18.258-.18.288-.002.574 0 .862 0h.012c.288 0 .574-.002.862 0 .139 0 .225.063.258.18.022.082.016.149-.05.21a.757.757 0 00-.023 1.117zm3.777-2.986c-.012.13-.14.294-.33.379-.409.184-.826.343-1.24.513a.367.367 0 01-.325-.02.985.985 0 01-.256-.208c-.148-.163-.105-.379.098-.458.121-.048.248-.08.372-.12.444-.144.883-.308 1.317-.486.198-.079.378.066.364.4zm4.525-.29a8.104 8.104 0 01-.395.275c-.402.264-.804.528-1.206.79a.56.56 0 01-.192.087c-.12.024-.268-.119-.225-.277.116-.425-.055-.788-.436-.96a.526.526 0 01-.1-.06c-.122-.099-.125-.275.003-.361.5-.336 1.003-.667 1.507-.995.15-.099.323-.003.325.16-.005.043-.009.08-.01.117-.024.425.2.75.589.853.04.01.082.024.117.045a.19.19 0 01.023.327zm1.433-3.553c-.13.13-.262.258-.4.378a.459.459 0 01-.419.124c-.12-.027-.188-.106-.22-.225-.033-.116.02-.197.1-.272.216-.2.43-.402.642-.608.087-.085.175-.118.285-.063.112.057.188.14.185.23a.58.58 0 01-.173.436zm-1.524-1.168c-2.36 1.974-5.03 3.32-8.054 3.927a6.322 6.322 0 01-1.209.14 6.335 6.335 0 01-1.208-.14c-3.024-.607-5.696-1.953-8.054-3.927-1.263-1.058-2.398-2.245-3.456-3.508a3.002 3.002 0 01-.587-1.034c-.333-.76-.409-1.556-.339-2.373.069-.79.133-1.58.2-2.371l.252-2.97c.064-.764.124-1.527.188-2.29.066-.781.133-1.561.198-2.343.063-.744.123-1.49.185-2.235.067-.8.136-1.6.202-2.399.062-.755.115-1.51.185-2.262.095-1.016.08-2.047.305-3.043.38-1.686 1.46-2.81 3.012-3.498.668-.297 1.38-.423 2.113-.464.985-.055 1.97-.03 2.954-.017.137-.005.272-.012.41-.012H25.448c.138 0 .273.007.41.012.985-.012 1.968-.038 2.954.017.734.04 1.445.167 2.113.464 1.551.69 2.631 1.812 3.012 3.498.223.996.21 2.027.305 3.043.07.753.123 1.508.185 2.262.066.8.135 1.6.202 2.399.062.744.122 1.49.185 2.235.065.782.134 1.562.198 2.343.064.764.124 1.528.188 2.29.082.99.167 1.98.252 2.97.067.79.131 1.58.2 2.371.07.817-.006 1.614-.339 2.373-.119.388-.332.728-.587 1.034-1.064 1.261-2.199 2.449-3.462 3.508zm4.976-1.886c-.03.269-.138.684-.208 1.022-.043.209-.107.47-.155.692a.507.507 0 01-.061.169.2.2 0 01-.327.015.757.757 0 00-.592-.321c-.204-.008-.277-.17-.162-.304.138-.164.237-.288.4-.522l.07-.105.002-.001.038-.055c.001-.003.003-.006.006-.008v-.001c.077-.114.153-.23.232-.345l.194-.279.003-.003c.017-.024.035-.047.05-.071.208-.261.532-.24.51.117z" fill="#000"/><path d="M8.696 28.534c.341-.015.38-.057.405-.4.093-1.27.176-2.541.285-3.812.076-.898.148-1.796.217-2.694.094-1.215.216-2.428.316-3.643.068-.827.113-1.653.179-2.48.085-1.078.177-2.155.27-3.233.076-.895.15-1.791.234-2.685.07-.751.098-1.506.261-2.247.28-1.27.826-2.384 1.9-3.167a4.365 4.365 0 011.559-.702c.134-.033.29-.057.39.11.091.155-.019.239-.096.333-.61.748-1.208 1.505-1.617 2.392a8.664 8.664 0 00-.77 2.797 12.336 12.336 0 00.21 3.852c.07.315-.071.572-.271.798-.552.627-.537.726.014 1.37.71.832 1.35 1.72 1.873 2.687.338.628.412 1.23.074 1.923-.638 1.31-1.272 2.626-1.797 3.99-.215.556-.374 1.129-.41 1.72-.034.554.168 1.06.518 1.492.526.652 1.223 1.089 1.937 1.5.186.108.298-.074.441-.134-.047.36 6.68 6.952 7.513 6.927-.277.183-.383.437-.338.767.018.134.003.273.003.408 0 .515.119.648.616.692-.613.1-1.223.026-1.818-.094-3.025-.607-5.697-1.952-8.055-3.927-1.263-1.057-2.398-2.244-3.456-3.508a3.03 3.03 0 01-.587-1.032z" fill="#F7CEA2"/><path d="M5.362 10.114c-.046-.59.339-1.208.785-1.794a29.644 29.644 0 012.2-2.539c.126-.133.28-.367.455-.25.18.12.01.354-.065.514-.808 1.708-1.393 3.493-1.895 5.31-.106.383-.203.77-.302 1.154-.034.136-.065.264-.243.287-.177.022-.244-.093-.307-.217-.36-.716-.608-1.46-.628-2.465zM38.844 10.335a4.405 4.405 0 01-.358 1.67c-.122.294-.236.303-.442.064a1.092 1.092 0 01-.183-.334l-2.376-5.98c-.025-.065-.096-.148-.021-.2.102-.07.197.017.263.084.325.334.648.669.959 1.016.583.653 1.158 1.313 1.652 2.037.388.575.506.977.506 1.643zM27.262 15.916c.176.358.348.719.519 1.08.103.216.036.447-.17.592-.209.149-.409.136-.588-.05a.805.805 0 01-.147-.195c-.572-1.159-1.107-2.334-1.396-3.602-.306-1.336-.258-2.641.383-3.885.075-.145.157-.29.252-.422.169-.237.41-.297.616-.166.254.163.342.436.185.685a4.265 4.265 0 00-.612 1.65c-.046.302-.034.602-.022.902.06 1.62.558 2.552.98 3.41z" fill="#9E6743"/><path d="M30.339 11.851c.23-.097.256-.267.156-.484-.262-.572-.364-1.205.39-.828.443.222.823.641.94 1.041.113.385.078.814-.02 1.21a.509.509 0 01-.388.407c-.497.146-1.019.203-1.494.428-.294.139-.331.22-.152.49.368.55.238 1.092-.36 1.383-.644.313-1.31.337-1.978.17a1.446 1.446 0 01-.622-.322 1.352 1.352 0 01-.25-.295c-.236-.376-.479-.803-.612-1.237-.09-.292-.058-.464.212-.616.212-.119 3.985-1.264 4.178-1.347z" fill="#020101"/><path d="M29.164 28.337c-.118-.957-.024-.951-.245-1.892-.116-.496-.301-1.343-.444-1.734a84.824 84.824 0 00-1.813-4.43c-.29-.651-.656-1.339-.994-1.965-.515-.95-1.243-1.683-2.387-1.99a4.024 4.024 0 00-1.133-.134 3.929 3.929 0 00-1.134.134c-1.144.307-1.873 1.038-2.386 1.99a30.379 30.379 0 00-.995 1.964 84.998 84.998 0 00-1.812 4.431c-.143.391-.328 1.237-.445 1.734-.22.94-.127.935-.244 1.892-.072.576-.252 1.513-.203 2.093.05.598.583 1.655 1.114 1.936.42.22 2.925.268 3.344.498.517.283 1.754.83 2.76 1.057 1.008-.226 2.244-.774 2.762-1.057.419-.23 2.924-.277 3.344-.498.53-.28 1.064-1.338 1.114-1.936.049-.58-.132-1.516-.203-2.093z" fill="#9E6743"/><path d="M28.163 23.892s.605 2.453.805 4.357c.06.577.106 1.226.057 1.806-.05.599-.445 1.026-.976 1.305-.419.221-.91.22-1.387.163-.917-.109-1.561-.668-2.179-1.272-.376-.367-.758-.728-1.135-1.094a1.014 1.014 0 01-.331-.78c.012-.859.02-1.663-.003-2.522a.866.866 0 01.465-.823c.666-.367 1.243-.838 1.692-1.442.544-.734.303-2.008-.522-2.303a2.731 2.731 0 00-.9-.163c-.534-.004-1.069-.009-1.603-.01-.534.001-1.07.004-1.603.01a2.77 2.77 0 00-.9.163c-.825.295-1.066 1.569-.522 2.303.45.604 1.026 1.075 1.692 1.442a.87.87 0 01.465.823c-.022.86-.015 1.663-.003 2.522.004.317-.11.567-.331.78-.377.366-.76.727-1.135 1.094-.62.604-1.262 1.163-2.18 1.272-.477.057-.967.06-1.386-.163-.531-.28-.925-.708-.976-1.305-.05-.58-.003-1.229.057-1.806.2-1.904.805-4.357.805-4.357-.72 1.428-2.15 5.009-1.785 7.466.086.581.292 1.091.823 1.416.5.376 1.796.531 2.524.388.426-.077.641.087.841.378.355.52.828.903 1.389 1.19.7.36 1.45.5 2.227.5.778 0 1.525-.14 2.226-.5.56-.288 1.034-.671 1.389-1.19.198-.291.413-.455.841-.378.728.143 2.023-.012 2.524-.388.53-.325.737-.835.823-1.416.363-2.459-1.068-6.038-1.788-7.466zm-4.093 9.061c-.53.45-1.157.62-1.924.631-.765-.012-1.393-.182-1.924-.63-.333-.282-.348-.553-.02-.827.523-.44.99-.938 1.492-1.399.176-.161.313-.236.452-.225.139-.01.276.064.452.225.503.46.97.96 1.493 1.4.327.275.312.545-.021.825z" fill="#020101"/><path d="M17.488 15.916c-.175.358-.347.719-.518 1.08-.103.216-.036.447.17.592.208.149.408.136.587-.05a.8.8 0 00.148-.195c.571-1.159 1.107-2.334 1.396-3.602.306-1.336.258-2.641-.383-3.885a3.353 3.353 0 00-.253-.422c-.168-.237-.41-.297-.616-.166-.253.163-.341.436-.184.685.32.508.52 1.057.611 1.65.046.302.034.602.022.902-.06 1.62-.557 2.552-.98 3.41z" fill="#9E6743"/><path d="M14.411 11.851c-.23-.097-.256-.267-.157-.484.263-.572.364-1.205-.389-.828-.443.222-.823.641-.94 1.041-.113.385-.079.814.02 1.21a.509.509 0 00.388.407c.496.146 1.018.203 1.494.428.294.139.331.22.152.49-.368.55-.238 1.092.36 1.383.644.313 1.31.337 1.978.17.23-.056.445-.164.621-.322.094-.083.178-.179.251-.295.236-.376.479-.803.611-1.237.09-.292.059-.464-.211-.616-.213-.119-3.986-1.264-4.178-1.347z" fill="#020101"/></svg>