<svg viewBox="0 0 48 30" fill="none" xmlns="http://www.w3.org/2000/svg">
<path d="M45.247 10.999l1.382 4.203c.274.836.707 2.336-2.883 3.517-3.587 1.18-3.787-.892-8.606.691-7.433 2.444-6.277 5.541-15.6 8.607-9.324 3.068-15.205-1.09-16.89-6.217l-1.382-4.203c1.685 5.126 7.568 9.287 16.892 6.22 9.325-3.065 8.167-6.162 15.6-8.606 4.816-1.585 5.017.485 8.604-.695 3.59-1.181 3.157-2.683 2.883-3.517z" fill="#9E6844"/><path d="M17.998 23.331C9.08 26.264 3.413 22.486 1.753 17.44c-.14-.419-3.242-10.325 8.801-14.286 18.926-6.225 33.241 5.07 34.207 8.004.239.73.604 1.834-2.555 2.873-1.544.508-2.386.372-3.36.214-1.192-.193-2.543-.411-5.246.479-3.597 1.183-5.225 2.508-6.95 3.911-1.877 1.53-3.815 3.107-8.651 4.697z" fill="#fff"/><path d="M10.396 2.666C-1.02 6.421.616 15.616 1.268 17.597c1.685 5.126 7.568 9.287 16.892 6.22 9.325-3.065 8.167-6.162 15.6-8.606 4.817-1.585 5.017.485 8.604-.695 3.591-1.181 3.159-2.681 2.883-3.517-1.083-3.294-15.874-14.574-34.851-8.333zm33.88 8.651c.131.398.171.633.058.863-.13.272-.607.81-2.29 1.363-1.425.47-2.172.348-3.118.197-1.251-.203-2.666-.428-5.487.498-3.683 1.213-5.429 2.63-7.112 4-1.84 1.495-3.742 3.047-8.487 4.607-8.583 2.822-14.022-.763-15.601-5.568l-.002-.004c-.357-1.087-.751-3.616.046-6.176 1.076-3.463 3.912-5.975 8.431-7.462 9.92-3.262 18.225-1.49 23.442.572 5.714 2.257 9.394 5.546 10.052 6.944.03.06.05.114.068.166z" fill="#EA5743"/><path d="M3.295 16.495C2.067 12.761 4.778 6.46 10.685 4.518c5.91-1.944 10.39 1.573 10.829 2.909.571 1.74-.124 2.82.29 4.075.727 2.213 2.681 1.151 3.587 3.904.488 1.485-1.95 4.618-7.022 6.286-5.072 1.666-13.016 1.054-15.074-5.197zM23.9 8.69c-.666-2.024-.544-5.113.695-5.522 2.443-.803 18.055 3.67 18.9 8.545.134.77-1.293 1.182-2.264 1.307-2.923.377-4.709-.552-7.106.03-1.688.412-3.734 1.875-5.555 2.474-2.05.676-2.814-1.195-4.67-6.834z" fill="#EA5743"/><path d="M11.473 17.335c2.313-.761 3.837-2.447 3.403-3.766-.433-1.318-2.66-1.77-4.974-1.01-2.313.761-3.837 2.447-3.403 3.766.434 1.318 2.66 1.77 4.974 1.01z" fill="#F7CEA2"/><path d="M1.901 20.565c.956 2.218 3.087 3.411 5.288 4.145 2.568.857 5.35 1.046 8.027.718 2.72-.334 5.4-1.157 7.827-2.438 2.477-1.307 4.33-3.493 6.802-4.84 2.903-1.583 5.986-2.284 9.263-2.477.745-.045.758-1.155 0-1.168-3.192-.06-6.49.834-9.323 2.266-3.03 1.531-5.246 4.178-8.3 5.636-3.112 1.484-6.645 2.206-10.09 1.955-3.107-.226-7.13-1.297-8.787-4.21-.267-.473-.91-.058-.707.413z" fill="#000"/><path d="M38.308 15.605c1.746-.14 3.603.178 5.28-.448 1.562-.583 2.344-1.71 2.456-3.351.043-.612-.969-.759-1.08-.147-.142.763-.198 1.407-.846 1.932-.584.474-1.335.698-2.07.788-1.288.16-2.58.104-3.863.32-.506.088-.392.949.123.906zM2.762 20.546c-.743-1.813-1.452-3.54-1.52-5.532a12.71 12.71 0 01.872-5.048c1.233-3.18 3.567-5.408 6.46-7.091.654-.38.078-1.263-.576-.987-3.253 1.375-5.8 4.528-7.056 7.754-1.379 3.54-1.435 8.265 1.127 11.309.255.307.852-.023.693-.405z" fill="#000"/><path d="M4.073 6.263C8.723 2.51 15.039 1.104 20.888 1.13c3.244.016 6.582.329 9.756 1.014 2.89.625 5.6 2.444 8.17 3.848 1.26.689 2.626 1.285 3.74 2.208 1.056.873 2.282 2.537 2.465 3.937.106.809 1.394.82 1.286 0-.342-2.607-2.471-4.777-4.665-6.014-2.818-1.59-5.757-3.216-8.75-4.45-1.563-.645-3.23-.869-4.895-1.106A55.762 55.762 0 0022.77.05c-3.41-.164-6.885.054-10.19.944a25.91 25.91 0 00-4.69 1.751c-1.625.802-2.953 1.842-4.308 3.024-.34.3.15.77.49.494z" fill="#000"/><path d="M7.913 2.998a39.53 39.53 0 012.81-.845c.94-.244 1.953-.319 2.866-.634.558-.193.467-1.005-.14-1.032-1.951-.083-4.17.807-5.926 1.583-.525.233-.153 1.112.39.928zM45.602 11.447c-.573.612-.31 1.332-.013 2.044.2.483 1.172 2.813.51 3.19-.483.273-.311 1.196.303 1.117 1.255-.158 1.185-1.345 1.04-2.37a7.815 7.815 0 00-.452-1.736c-.27-.691-.476-1.386-.73-2.076-.098-.26-.441-.401-.658-.17z" fill="#000"/><path d="M46.376 16.688c-2.268 2.348-6.056 1.303-8.956 1.792-3.05.513-5.76 2.168-8.35 3.772-2.932 1.817-5.838 3.348-9.14 4.4-3.547 1.13-7.12 2.417-10.799 1.106-1.73-.616-3.907-1.62-4.751-3.336-.938-1.911-1.577-3.963-2.523-5.873-.32-.646-1.415-.195-1.176.497.658 1.905 1.498 3.784 2.309 5.63.714 1.625 1.923 2.52 3.458 3.347 1.588.855 3.314 1.469 5.118 1.649 1.857.183 3.664-.252 5.436-.757 3.701-1.058 7.286-2.213 10.609-4.2 2.932-1.754 5.75-3.907 9.108-4.78 3.414-.886 7.815.541 10.317-2.585.367-.46-.231-1.106-.66-.662z" fill="#000"/>
</svg>